<mxfile host="app.diagrams.net" modified="2021-08-05T16:29:29.446Z" agent="5.0 (Windows NT 10.0; Win64; x64) AppleWebKit/537.36 (KHTML, like Gecko) Chrome/92.0.4515.107 Safari/537.36" etag="Y35oGL3P-FQsKrlZeWjZ" version="14.9.3" type="github">
  <diagram id="5V4t7U7J9Y1JV5jnv_e4" name="Page-1">
    <mxGraphModel dx="774" dy="481" grid="1" gridSize="10" guides="1" tooltips="1" connect="1" arrows="1" fold="1" page="1" pageScale="1" pageWidth="850" pageHeight="1100" math="0" shadow="0">
      <root>
        <mxCell id="0" />
        <mxCell id="1" parent="0" />
        <mxCell id="I0DUhKfh0YvtUQApuTA1-6" value="" style="edgeStyle=orthogonalEdgeStyle;rounded=0;orthogonalLoop=1;jettySize=auto;html=1;" edge="1" parent="1" source="I0DUhKfh0YvtUQApuTA1-1" target="I0DUhKfh0YvtUQApuTA1-3">
          <mxGeometry relative="1" as="geometry" />
        </mxCell>
        <mxCell id="I0DUhKfh0YvtUQApuTA1-18" value="" style="edgeStyle=orthogonalEdgeStyle;rounded=0;orthogonalLoop=1;jettySize=auto;html=1;" edge="1" parent="1" source="I0DUhKfh0YvtUQApuTA1-1">
          <mxGeometry relative="1" as="geometry">
            <mxPoint x="330" y="94" as="targetPoint" />
          </mxGeometry>
        </mxCell>
        <mxCell id="I0DUhKfh0YvtUQApuTA1-1" value="Portal" style="aspect=fixed;html=1;points=[];align=center;image;fontSize=12;image=img/lib/azure2/general/Management_Portal.svg;" vertex="1" parent="1">
          <mxGeometry x="380" y="70" width="60" height="48" as="geometry" />
        </mxCell>
        <mxCell id="I0DUhKfh0YvtUQApuTA1-2" value="Guest Notification Service" style="rounded=0;whiteSpace=wrap;html=1;" vertex="1" parent="1">
          <mxGeometry x="190" y="410" width="120" height="60" as="geometry" />
        </mxCell>
        <mxCell id="I0DUhKfh0YvtUQApuTA1-5" style="edgeStyle=orthogonalEdgeStyle;rounded=0;orthogonalLoop=1;jettySize=auto;html=1;exitX=0;exitY=0.5;exitDx=0;exitDy=0;entryX=1;entryY=0.5;entryDx=0;entryDy=0;" edge="1" parent="1" source="I0DUhKfh0YvtUQApuTA1-3" target="I0DUhKfh0YvtUQApuTA1-4">
          <mxGeometry relative="1" as="geometry" />
        </mxCell>
        <mxCell id="I0DUhKfh0YvtUQApuTA1-9" style="edgeStyle=orthogonalEdgeStyle;rounded=0;orthogonalLoop=1;jettySize=auto;html=1;exitX=0.5;exitY=1;exitDx=0;exitDy=0;entryX=0.5;entryY=0;entryDx=0;entryDy=0;entryPerimeter=0;" edge="1" parent="1" source="I0DUhKfh0YvtUQApuTA1-3" target="I0DUhKfh0YvtUQApuTA1-8">
          <mxGeometry relative="1" as="geometry" />
        </mxCell>
        <mxCell id="I0DUhKfh0YvtUQApuTA1-3" value="Connect Service Extension RP DP(Hosted Proxy)" style="rounded=0;whiteSpace=wrap;html=1;" vertex="1" parent="1">
          <mxGeometry x="340" y="220" width="140" height="60" as="geometry" />
        </mxCell>
        <mxCell id="I0DUhKfh0YvtUQApuTA1-4" value="" style="aspect=fixed;perimeter=ellipsePerimeter;html=1;align=center;shadow=0;dashed=0;spacingTop=3;image;image=img/lib/active_directory/database.svg;" vertex="1" parent="1">
          <mxGeometry x="200" y="243" width="50" height="37" as="geometry" />
        </mxCell>
        <mxCell id="I0DUhKfh0YvtUQApuTA1-7" value="" style="endArrow=classic;startArrow=classic;html=1;exitX=0.885;exitY=0.04;exitDx=0;exitDy=0;exitPerimeter=0;entryX=0.25;entryY=1;entryDx=0;entryDy=0;" edge="1" parent="1" source="I0DUhKfh0YvtUQApuTA1-2" target="I0DUhKfh0YvtUQApuTA1-3">
          <mxGeometry width="50" height="50" relative="1" as="geometry">
            <mxPoint x="400" y="330" as="sourcePoint" />
            <mxPoint x="450" y="280" as="targetPoint" />
          </mxGeometry>
        </mxCell>
        <mxCell id="I0DUhKfh0YvtUQApuTA1-11" style="edgeStyle=orthogonalEdgeStyle;rounded=0;orthogonalLoop=1;jettySize=auto;html=1;exitX=0.5;exitY=1;exitDx=0;exitDy=0;exitPerimeter=0;entryX=0.5;entryY=0;entryDx=0;entryDy=0;" edge="1" parent="1" source="I0DUhKfh0YvtUQApuTA1-8" target="I0DUhKfh0YvtUQApuTA1-10">
          <mxGeometry relative="1" as="geometry" />
        </mxCell>
        <mxCell id="I0DUhKfh0YvtUQApuTA1-8" value="" style="verticalLabelPosition=bottom;verticalAlign=top;html=1;shape=mxgraph.infographic.cylinder;fillColor=#10739E;strokeColor=none;" vertex="1" parent="1">
          <mxGeometry x="390" y="340" width="60" height="100" as="geometry" />
        </mxCell>
        <mxCell id="I0DUhKfh0YvtUQApuTA1-10" value="Connect Agent" style="rounded=0;whiteSpace=wrap;html=1;" vertex="1" parent="1">
          <mxGeometry x="365" y="480" width="120" height="60" as="geometry" />
        </mxCell>
        <mxCell id="I0DUhKfh0YvtUQApuTA1-12" value="" style="endArrow=none;dashed=1;html=1;dashPattern=1 3;strokeWidth=2;" edge="1" parent="1">
          <mxGeometry width="50" height="50" relative="1" as="geometry">
            <mxPoint x="180" y="320" as="sourcePoint" />
            <mxPoint x="180" y="210" as="targetPoint" />
          </mxGeometry>
        </mxCell>
        <mxCell id="I0DUhKfh0YvtUQApuTA1-13" value="" style="endArrow=none;dashed=1;html=1;dashPattern=1 3;strokeWidth=2;" edge="1" parent="1">
          <mxGeometry width="50" height="50" relative="1" as="geometry">
            <mxPoint x="550" y="320" as="sourcePoint" />
            <mxPoint x="550" y="209" as="targetPoint" />
          </mxGeometry>
        </mxCell>
        <mxCell id="I0DUhKfh0YvtUQApuTA1-14" value="" style="endArrow=none;dashed=1;html=1;dashPattern=1 3;strokeWidth=2;" edge="1" parent="1">
          <mxGeometry width="50" height="50" relative="1" as="geometry">
            <mxPoint x="545" y="210" as="sourcePoint" />
            <mxPoint x="180" y="210" as="targetPoint" />
          </mxGeometry>
        </mxCell>
        <mxCell id="I0DUhKfh0YvtUQApuTA1-15" value="" style="endArrow=none;dashed=1;html=1;dashPattern=1 3;strokeWidth=2;" edge="1" parent="1">
          <mxGeometry width="50" height="50" relative="1" as="geometry">
            <mxPoint x="545" y="320" as="sourcePoint" />
            <mxPoint x="180" y="320" as="targetPoint" />
          </mxGeometry>
        </mxCell>
        <mxCell id="I0DUhKfh0YvtUQApuTA1-16" value="Common Logic" style="text;html=1;strokeColor=none;fillColor=none;align=center;verticalAlign=middle;whiteSpace=wrap;rounded=0;" vertex="1" parent="1">
          <mxGeometry x="480" y="290" width="40" height="20" as="geometry" />
        </mxCell>
        <mxCell id="I0DUhKfh0YvtUQApuTA1-19" value="ListUserCluster&lt;br&gt;Credential call" style="rounded=0;whiteSpace=wrap;html=1;" vertex="1" parent="1">
          <mxGeometry x="210" y="64" width="120" height="60" as="geometry" />
        </mxCell>
      </root>
    </mxGraphModel>
  </diagram>
</mxfile>
